PathFileType	4	(X/Y/Z)	61_1_17_p1_0-183_filt_butterworth.trc
DataRate	CameraRate	NumFrames	NumMarkers	Units	OrigDataRate	OrigDataStartFrame	OrigNumFrames
49.0	49.0	5	27	m	49.0	114	183
Frame#	Time	RHip			RKnee			RAnkle			RBigToe			RSmallToe			RHeel			LHip			LKnee			LAnkle			LBigToe			LSmallToe			LHeel			Neck			Head			Nose			RShoulder			RElbow			RWrist			RThumb			RIndex			RPinky			LShoulder			LElbow			LWrist			LThumb			LIndex			LPinky			
		X1	Y1	Z1	X2	Y2	Z2	X3	Y3	Z3	X4	Y4	Z4	X5	Y5	Z5	X6	Y6	Z6	X7	Y7	Z7	X8	Y8	Z8	X9	Y9	Z9	X10	Y10	Z10	X11	Y11	Z11	X12	Y12	Z12	X13	Y13	Z13	X14	Y14	Z14	X15	Y15	Z15	X16	Y16	Z16	X17	Y17	Z17	X18	Y18	Z18	X19	Y19	Z19	X20	Y20	Z20	X21	Y21	Z21	X22	Y22	Z22	X23	Y23	Z23	X24	Y24	Z24	X25	Y25	Z25	X26	Y26	Z26	X27	Y27	Z27	
114	2.326530612244898	0.3325824826063231	0.6333542936427647	0.9699972999113838	0.3231493685009181	0.7580219072734877	1.3960925044974468	0.2850741975119859	0.9533316434981381	1.7974093161419196	0.31644057878927845	0.7285679473101315	1.825040719931609	0.37481112759174345	0.7725684611094773	1.820354502812247	0.2642304310372301	0.9976545899210644	1.8377547315424256	0.12866881867254976	0.5738924362764468	0.963017159177342	0.10675916704691912	0.7377837656478798	1.386860504663889	0.11260003497816598	0.8791796197647261	1.7921533257043822	0.15004382683443812	0.7349561538187572	1.842076688928219	0.08352206151373733	0.7372827412334333	1.8216015476542209	0.1293661675266583	0.9630601331607808	1.8458664534015448	0.25417083167000504	0.45666782495989156	0.40281773611240423	0.3146549797512308	0.3971181173954456	0.17813320186756781	0.30050171038292284	0.33433337087629966	0.2908673404839697	0.4004299196813871	0.5459024612764789	0.5088405609646056	0.4139284235388133	0.6418746257088268	0.7449341983594632	0.4336566185393002	0.6862780934112465	0.9841097182737208	0.42315661208003347	0.625776274759685	1.103920680531962	0.44594373374694046	0.6572690032892975	1.1196790849736982	0.4405718174419207	0.7357160922280129	1.1318228596857562	0.1041008010713585	0.43528963215340283	0.4799563942351815	-0.11069691430225406	0.35475482391744145	0.6095073059439556	-0.060581770454383066	0.24598988393731913	0.4572017490549226	0.03867828761862632	0.2504829302457516	0.4196856390430449	0.03381232436896817	0.23348045407285212	0.40158009589195753	-0.004164188964532745	0.16534667734834352	0.43727340367107603
115	2.346938775510204	0.33544221326592444	0.6314853392111637	0.9697375514028204	0.32257565035420355	0.7577420122495125	1.3960432504286384	0.28668325461724664	0.9481981272493432	1.7954962781435981	0.31640108149438506	0.7286544014112905	1.8250443280039181	0.3748140964437485	0.7729417474188812	1.8205315241572713	0.2643578988823981	0.9973906939091304	1.8372004077761743	0.1301076956475135	0.574198124776711	0.9634683754322209	0.1059613997438383	0.7389671353478191	1.3895486298506217	0.11215398403644909	0.878951509373313	1.7912365286747745	0.15068882802071454	0.7219050577328686	1.834317904585882	0.08311375065840057	0.7372797827377211	1.8197123186026465	0.12979910326293576	0.9640607298965759	1.8460861344142474	0.25171953809936914	0.46299381477767143	0.40248036481545396	0.3126561643789082	0.3972334392887973	0.17824187889191068	0.29914483754026244	0.3349311225015106	0.2909214570993829	0.39749704304850003	0.5504664379415187	0.5075112116926715	0.41426769876412634	0.6426201372045353	0.7467439012125977	0.4351838545727222	0.6869985673858514	0.982220101845074	0.4255155394132918	0.6251870787095016	1.1009658464286247	0.4502209040987877	0.6498424857226047	1.1171035895690777	0.44198029633630526	0.7312273862507076	1.1308447300845321	0.10117039404512405	0.4409279399864677	0.4832959763655552	-0.10469853922276723	0.3826628397695323	0.6280347425882883	-0.09259616808777886	0.2888488134149943	0.477834495289732	-0.00026218347120325614	0.29104217761574863	0.42602681876695014	-0.007973033637052318	0.2711636029288864	0.4106766806776568	-0.03734620433903498	0.21225492802242435	0.45198330715543855
116	2.36734693877551	0.3376259655892463	0.626848974978163	0.9687461977411828	0.322154999263491	0.7573826562061837	1.3953445932373938	0.28882147341509595	0.9398877163449337	1.791226871257167	0.31637349615158145	0.7286885532930822	1.8250855123785183	0.37442833379069645	0.7722592382481275	1.8222004383905404	0.26441073353535816	0.9972612735687613	1.8358974308628986	0.1311163878637549	0.5750616920368636	0.9631342740061256	0.1054117270591122	0.7396038794816633	1.3912044759025874	0.11185341725435446	0.8785103126079158	1.7901226305914952	0.15043269582873667	0.7156318788100527	1.831663078799688	0.08240151470928671	0.7363589086560216	1.8189565414155762	0.13120596944826696	0.9565808188786993	1.8431310264486038	0.25033889384370683	0.4663980683542101	0.40135583838759736	0.3108459815425175	0.3973741935824297	0.17806071676481988	0.29891582780760606	0.33409350609632976	0.2910204970918693	0.3952896144954341	0.5563354539330974	0.5055857303130176	0.4152922031161492	0.6445937269140476	0.7481394593593008	0.43904060128132955	0.6862219456881895	0.9808049887148154	0.42772122242852545	0.6273639309423953	1.096081867718171	0.4546514917932298	0.6467989604237987	1.1133381766977852	0.44395515986424355	0.724986535041743	1.1299970316182633	0.09732538139805921	0.4419201917952098	0.48538346872033555	-0.09418708938622491	0.41722780076107613	0.6487592809102198	-0.12335046684214043	0.33065784322028474	0.5024214348059389	-0.04244249651128129	0.3202757626250309	0.4306309781170795	-0.055522608538931637	0.2967400136399249	0.4211481692790886	-0.07363405480788615	0.2615722778612572	0.47043604759546004
117	2.3877551020408165	0.33787929123066546	0.6210908247435177	0.9676218051364395	0.3223374879470299	0.7572348224475943	1.395101918025459	0.29036648841127	0.9344741076038094	1.7886638113727082	0.316357158812076	0.728993815744821	1.8252129032932716	0.3737148558060157	0.7716911165333415	1.825047997562932	0.26428922380364644	0.9974132623557763	1.8350467177512577	0.13204247248965845	0.5785797505534618	0.9629908011493676	0.10643952955441857	0.7380317399898201	1.391095349459956	0.11362320754071772	0.8773430463565772	1.7891414754370882	0.14948489612484914	0.7174897415152373	1.8344629725329376	0.08212859031789742	0.7353621510585322	1.819868391564774	0.1344985316939657	0.945635495619432	1.8392812035926858	0.24885005049589426	0.4655676150054531	0.3999784003134407	0.30745180063221966	0.3973719277708666	0.1783303743524149	0.2974451630938728	0.33415907951496804	0.2910969052646504	0.3941023077023391	0.5607755804368741	0.5042612610784235	0.4167193786337665	0.6464205210420497	0.7478054128274125	0.44468479519211057	0.6801539925696668	0.9781987757280546	0.43116439191934	0.6363950156871527	1.0920358558923504	0.45782479883493366	0.6508734525391113	1.1097684072296423	0.44612932731565125	0.720385800161081	1.128825663139201	0.09259174346697432	0.44806142085011813	0.48826714555454415	-0.07954287200529682	0.4593228889043289	0.6704310295415425	-0.14435139619934326	0.3629720248727417	0.5290225983383786	-0.07892147092952448	0.32476204123144026	0.44445160854031196	-0.0979956727579411	0.3021580094947032	0.4397605974166708	-0.11155410906906225	0.2993181743821717	0.49501343277182125
118	2.4081632653061225	0.337169790161095	0.6174655685270266	0.9662911248487833	0.32354730812169064	0.7572517255684699	1.3951753192313603	0.2908861683709473	0.9337089077073926	1.7889217923341534	0.31634859002956506	0.7294354162721899	1.8254120077996214	0.37278892763364047	0.7714392403473791	1.8270274478518633	0.26450052408056607	0.9962411504381398	1.835040470994021	0.13306923255482406	0.5842197184589308	0.96352683024303	0.11007168324275346	0.7335761049391272	1.3897736354426526	0.11889090258999627	0.8744129259186624	1.7887084622965126	0.14893853019449432	0.7199104607993481	1.8377577823044529	0.08215176653185197	0.7351152116717563	1.8210346119626446	0.13811150082284185	0.939838653273663	1.838188965730836	0.24668833136566867	0.46106130234012904	0.399459462076215	0.3021895724334952	0.39715414389133386	0.17914320616589266	0.29322704696435464	0.3365517596086811	0.291113690510954	0.39368825523946394	0.5612571673128216	0.5039841135735142	0.4178153047185662	0.6448281030370012	0.7450176608992869	0.4504848938128885	0.6683692588476519	0.9729486133185048	0.43676236216498676	0.6531906251953296	1.0918255552484533	0.46041600479424116	0.6559376286540389	1.1079986414327623	0.4488673696491058	0.7188945019573635	1.1276937259029434	0.0879578164029645	0.46437372184938336	0.4904764332671603	-0.06071793412050902	0.5079381372658099	0.6870802340644429	-0.15655769744318976	0.3917326836891017	0.5593709420308972	-0.11652104061111333	0.32930844634660644	0.4740525999884305	-0.14051333534588722	0.30289454865210824	0.47362778888785595	-0.15496187849109325	0.32587575913967687	0.5290538345041358
